<?xml version="1.0" encoding="UTF-8" standalone="no"?><!DOCTYPE svg PUBLIC "-//W3C//DTD SVG 1.1//EN" "http://www.w3.org/Graphics/SVG/1.1/DTD/svg11.dtd"><svg width="100%" height="100%" viewBox="0 0 800 800" version="1.1" xmlns="http://www.w3.org/2000/svg" xmlns:xlink="http://www.w3.org/1999/xlink" xml:space="preserve" xmlns:serif="http://www.serif.com/" style="fill-rule:evenodd;clip-rule:evenodd;stroke-linejoin:round;stroke-miterlimit:2;"><path d="M727.634,0l-655.267,0c-39.966,0 -72.366,32.4 -72.366,72.366l0,655.265c0,39.969 32.4,72.369 72.366,72.369l655.265,0c39.969,0 72.369,-32.4 72.369,-72.369l0,-655.265c0,-39.966 -32.4,-72.366 -72.366,-72.366Zm-480.08,690.773c0,11.631 -9.428,21.06 -21.06,21.06l-89.646,0c-11.631,0 -21.06,-9.428 -21.06,-21.06l0,-375.793c0,-11.631 9.428,-21.06 21.06,-21.06l89.646,0c11.631,0 21.06,9.428 21.06,21.06l0,375.793Zm-65.883,-432.276c-47.035,0 -85.164,-38.13 -85.164,-85.164c0,-47.035 38.13,-85.164 85.164,-85.164c47.035,0 85.164,38.13 85.164,85.164c0,47.035 -38.128,85.164 -85.164,85.164Zm534.371,433.973c0,10.693 -8.67,19.363 -19.363,19.363l-96.197,0c-10.693,0 -19.363,-8.67 -19.363,-19.363l0,-176.268c0,-26.295 7.713,-115.227 -68.718,-115.227c-59.286,0 -71.311,60.871 -73.726,88.188l0,203.307c0,10.693 -8.668,19.363 -19.363,19.363l-93.039,0c-10.693,0 -19.363,-8.67 -19.363,-19.363l0,-379.185c0,-10.693 8.67,-19.363 19.363,-19.363l93.039,0c10.693,0 19.363,8.67 19.363,19.363l0,32.785c21.983,-32.991 54.653,-58.454 124.214,-58.454c154.036,0 153.154,143.908 153.154,222.978l0,181.876Z" style="fill:#fafafa;fill-rule:nonzero;"/></svg>